<?xml version="1.0" encoding="UTF-8" standalone="no"?>
<!-- Created with Inkscape (http://www.inkscape.org/) -->

<svg
  width="665.44031"
  height="200"
  viewBox="0 0 665.44031 200"
  version="1.1"
  id="svg1"
  xmlns="http://www.w3.org/2000/svg"
>
  <defs id="defs1" />
  <g
    id="layer1"
    transform="translate(-53.109674,-86.825868)"
  >
    <ellipse
      style="fill:#b4f2ff;fill-opacity:0.145763;stroke:#779cff;stroke-width:5.40541;stroke-dasharray:none;stroke-opacity:1"
      id="path1"
      cy="186.82587"
      cx="153.10965"
      rx="97.297256"
      ry="97.297295"
    />
    <path
      style="fill:#d096e6;fill-opacity:1;stroke:#779cff;stroke-width:5.40541;stroke-dasharray:none;stroke-opacity:1"
      d="m 201.06983,265.86956 c 0,0 -11.56384,-28.34511 -29.12855,-42.73779 -14.68205,-12.03059 -35.32806,-12.42188 -55.18906,-24.79217 -21.752604,-13.54842 -20.771983,-89.29568 -20.771983,-89.29568 0,0 24.785133,52.85428 44.927573,65.83245 16.5764,10.68047 31.9004,13.05598 52.24719,24.41834 24.38227,13.61595 7.91483,66.57485 7.91483,66.57485 z"
      id="path2"
    />
    <path
      style="fill:#7cf1fe;fill-opacity:1;stroke:#779cff;stroke-width:5.40541;stroke-dasharray:none;stroke-opacity:1"
      d="m 96.696509,110.954 c 0,0 37.609471,33.47218 60.422881,42.9865 23.53432,9.81497 55.66581,10.09975 65.83447,32.33341 11.76021,25.71349 -21.50861,82.05343 -21.50861,82.05343 0,0 15.85513,-55.9151 -8.16782,-68.82489 C 166.40836,185.06316 159.03076,186.47506 140.983,175.00193 122.03342,162.95547 96.696509,110.954 96.696509,110.954 Z"
      id="path3"
    />
    <path
      d="m 306.48563,147.97792 c -4.864,42.752 -5.376,78.72 -5.376,79.36 0,3.456 2.816,6.4 6.4,6.4 3.584,0 6.528,-2.944 6.656,-6.4 0,-0.384 0.256,-29.056 3.328,-62.336 8.448,20.48 17.536,46.848 22.144,64 0.768,2.688 2.304,4.736 7.04,4.736 4.864,0 6.4,-2.048 7.168,-4.736 4.608,-17.152 13.696,-43.52 22.144,-64 3.072,33.28 3.328,61.952 3.328,62.336 0.128,3.456 3.072,6.4 6.656,6.4 3.584,0 6.4,-2.944 6.4,-6.4 0,-0.64 -0.512,-36.608 -5.376,-79.36 -0.384,-3.328 -3.2,-6.144 -6.4,-6.144 -4.736,0 -7.424,1.792 -8.832,4.608 -7.552,14.592 -18.304,42.368 -25.088,64.512 -6.656,-22.144 -17.408,-49.92 -24.96,-64.512 -1.408,-2.816 -4.096,-4.608 -8.832,-4.608 -3.2,0 -6.016,2.816 -6.4,6.144 z m 165.02393,74.112 c -2.432,0 -4.352,-3.456 -4.352,-5.888 v -25.728 c 0,-14.848 -13.568,-23.296 -26.496,-23.296 -9.6,0 -20.48,3.968 -25.472,12.16 -1.792,2.944 -1.536,6.528 1.536,8.448 2.944,1.92 6.272,0.768 8.192,-2.048 4.352,-6.272 10.88,-7.168 15.744,-7.168 6.656,0 14.208,5.12 14.208,12.288 v 3.072 c -19.712,-1.536 -43.136,-0.128 -43.136,19.968 0,13.568 12.928,20.224 24.576,20.224 12.032,0 18.176,-4.352 20.992,-9.088 2.688,7.04 7.424,8.448 14.208,8.448 3.584,0 6.528,-2.304 6.528,-5.888 0,-3.584 -2.944,-5.504 -6.528,-5.504 z m -16.128,-12.672 c 0,8.704 -8.576,13.44 -19.072,13.44 -6.144,0 -12.032,-3.328 -12.032,-8.96 0,-8.32 10.88,-10.112 31.104,-9.984 z m 68.38406,-36.48 c 0.256,-3.328 -1.792,-5.632 -5.888,-5.632 -5.76,0 -11.392,2.432 -15.232,7.936 0,-3.968 -2.816,-6.912 -6.016,-6.912 -3.584,0 -6.144,2.944 -6.144,6.4 v 52.48 c 0,3.584 2.56,6.528 6.144,6.528 3.584,0 6.144,-2.944 6.144,-6.528 v -33.536 c 0,-8.96 5.12,-15.232 12.672,-15.232 4.864,0 8.064,-2.304 8.32,-5.504 z m 11.42405,26.752 c 0,19.968 14.336,34.432 33.408,34.432 18.432,0 33.536,-15.104 33.536,-33.408 0,-18.432 -15.104,-33.536 -33.536,-33.536 -9.728,0 -17.92,5.12 -21.12,9.216 v -30.464 c 0,-3.456 -2.56,-6.4 -6.144,-6.4 -3.584,0 -6.144,2.944 -6.144,6.4 v 52.992 z m 54.4,1.024 c 0,11.648 -7.296,22.272 -20.992,22.272 -13.568,0 -21.12,-10.624 -21.12,-22.272 0,-11.776 7.68,-22.016 21.12,-22.016 13.184,0 20.992,10.24 20.992,22.016 z m 28.4479,7.168 c 0,17.792 9.6,26.24 25.216,26.24 3.584,0 6.4,-1.92 6.4,-5.504 0,-3.584 -2.816,-5.76 -6.4,-5.76 -7.168,0 -12.928,-4.864 -12.928,-13.568 v -63.232 c 0,-3.584 -2.56,-6.528 -6.144,-6.528 -3.584,0 -6.144,2.944 -6.144,6.528 z m 72.22395,26.24 c 8.832,0 17.408,-3.584 23.552,-9.728 2.56,-2.56 3.072,-6.4 0.384,-8.832 -2.176,-2.048 -5.76,-2.304 -8.192,0.512 -3.712,4.224 -8.448,6.912 -15.872,6.912 -12.416,0 -20.736,-9.472 -20.736,-22.4 0,-12.416 8.576,-21.888 20.864,-21.888 8.704,0 15.872,4.352 15.872,9.6 0,3.328 -3.328,6.016 -7.296,6.016 h -18.304 c -3.584,0 -6.656,2.176 -6.656,5.76 0,3.584 3.072,5.76 6.656,5.76 h 18.304 c 11.648,0 19.712,-6.4 19.712,-17.408 0,-12.288 -14.336,-21.248 -28.16,-21.248 -18.56,0 -33.536,15.232 -33.536,33.408 0,18.432 15.104,33.536 33.408,33.536 z"
      id="text1"
      style="font-size:128px;font-family:Cushy;-inkscape-font-specification:Cushy;letter-spacing:3.99999px;fill:#779cff;stroke-width:9.99998"
      aria-label="Marble"
    />
  </g>
</svg>
